<svg xmlns="http://www.w3.org/2000/svg" xmlns:xlink="http://www.w3.org/1999/xlink" width="200.733" height="58" viewBox="0 0 200.733 58">
  <defs>
    <clipPath id="clip-path">
      <rect id="Rectangle_33" data-name="Rectangle 33" width="41.62" height="36.328" fill="#f3f3f3"/>
    </clipPath>
    <clipPath id="clip-path-2">
      <rect id="Rectangle_33-2" data-name="Rectangle 33" width="41.617" height="36.325" fill="#f3f3f3"/>
    </clipPath>
  </defs>
  <g id="Group_44" data-name="Group 44" transform="translate(-2771.632 -228)">
    <g id="Group_38" data-name="Group 38" transform="translate(2666 -545)">
      <g id="Group_10" data-name="Group 10" transform="translate(178.08 774.135)">
        <g id="Group_17" data-name="Group 17" transform="translate(4.172 4.117)">
          <rect id="Rectangle_19" data-name="Rectangle 19" width="58" height="58" rx="29" transform="translate(-5.252 -5.252)" fill="#f3f3f3"/>
          <g id="Play" transform="translate(11.748 9.748)">
            <rect id="bg" width="28" height="28" fill="none"/>
            <path id="play-solid" d="M9,5.156V31.034l1.827-1.193L29.1,18.1,10.827,6.349Zm2.386,4.363L24.7,18.1,11.386,26.671Z" transform="translate(-4.227 -3.963)" fill="#f3f3f3"/>
          </g>
        </g>
      </g>
      <path id="Path_1" data-name="Path 1" d="M2343.032,2006.922v-17.77l14.709,9.1Z" transform="translate(-2142 -1196)" fill="#101010"/>
    </g>
    <g id="Group_42" data-name="Group 42" transform="translate(2771.632 238.8)">
      <g id="Group_41" data-name="Group 41" clip-path="url(#clip-path)">
        <path id="Path_10" data-name="Path 10" d="M0,12.021Q.8,11.41,1.6,10.8c.182-.139.361-.284.58-.456L5.619,14.63A18.1,18.1,0,0,1,15.826,1.736,17.449,17.449,0,0,1,28.881.874a18.137,18.137,0,0,1-5.4,35.449V33.576a15.238,15.238,0,0,0,11.827-5.634,14.75,14.75,0,0,0,3.5-9.853A15.344,15.344,0,0,0,8.3,15.82l6.134-3.059,1.246,2.488c-.226.118-.427.227-.632.329L7.613,19.294a1.511,1.511,0,0,1-2.251-.506L0,12.1v-.081" transform="translate(0 0)" fill="#f3f3f3"/>
        <path id="Path_11" data-name="Path 11" d="M185.874,159.623h-1.233v-4.951q0-.886.042-1.406-.121.126-.3.278t-1.177.965l-.619-.781,2.255-1.773h1.028Z" transform="translate(-164.133 -135.801)" fill="#f3f3f3"/>
        <path id="Path_12" data-name="Path 12" d="M231.986,154.834a2.629,2.629,0,0,1,1.836.614,2.146,2.146,0,0,1,.677,1.673,2.444,2.444,0,0,1-.768,1.917,3.161,3.161,0,0,1-2.184.69,4.128,4.128,0,0,1-2.019-.414V158.2a3.7,3.7,0,0,0,.976.372,4.433,4.433,0,0,0,1.023.131,1.9,1.9,0,0,0,1.269-.373,1.356,1.356,0,0,0,.435-1.091q0-1.374-1.752-1.374a4.586,4.586,0,0,0-.608.05q-.362.05-.635.113l-.551-.325.294-3.745h3.986v1.1h-2.9l-.173,1.9.448-.073a4.228,4.228,0,0,1,.648-.042" transform="translate(-205.131 -135.801)" fill="#f3f3f3"/>
        <path id="Path_13" data-name="Path 13" d="M277.851,188.586a.858.858,0,0,1-.35.737,1.675,1.675,0,0,1-1,.257,2.367,2.367,0,0,1-1.052-.2v-.6a2.583,2.583,0,0,0,1.076.267q.643,0,.643-.388a.307.307,0,0,0-.071-.207.842.842,0,0,0-.234-.172,4.043,4.043,0,0,0-.454-.2,2.1,2.1,0,0,1-.766-.439.812.812,0,0,1-.2-.569.748.748,0,0,1,.34-.654,1.611,1.611,0,0,1,.924-.233,2.614,2.614,0,0,1,1.094.234l-.225.525a2.434,2.434,0,0,0-.892-.219q-.551,0-.551.314a.316.316,0,0,0,.144.261,3.159,3.159,0,0,0,.627.293,2.871,2.871,0,0,1,.59.288.862.862,0,0,1,.273.3.871.871,0,0,1,.089.408" transform="translate(-245.238 -165.698)" fill="#f3f3f3"/>
      </g>
    </g>
    <g id="Group_43" data-name="Group 43" transform="translate(2917.07 238.803)">
      <g id="Group_41-2" data-name="Group 41" transform="translate(13.678 0)" clip-path="url(#clip-path-2)">
        <path id="Path_10-2" data-name="Path 10" d="M41.617,12.021q-.8-.611-1.6-1.223c-.182-.139-.361-.284-.58-.456L36,14.629A18.1,18.1,0,0,0,25.793,1.736,17.448,17.448,0,0,0,12.738.874a18.136,18.136,0,0,0,5.4,35.447V33.573A15.237,15.237,0,0,1,6.308,27.939a14.749,14.749,0,0,1-3.5-9.852,15.342,15.342,0,0,1,30.5-2.268L27.179,12.76l-1.246,2.488c.226.118.427.227.632.329L34,19.293a1.511,1.511,0,0,0,2.251-.506L41.617,12.1v-.081" transform="translate(0 0)" fill="#f3f3f3"/>
        <path id="Path_11-2" data-name="Path 11" d="M185.874,159.623h-1.233v-4.951q0-.886.042-1.405-.121.126-.3.278t-1.177.965l-.619-.781,2.255-1.773h1.028Z" transform="translate(-172.691 -135.802)" fill="#f3f3f3"/>
        <path id="Path_12-2" data-name="Path 12" d="M231.986,154.834a2.629,2.629,0,0,1,1.836.614,2.146,2.146,0,0,1,.676,1.673,2.444,2.444,0,0,1-.768,1.917,3.16,3.16,0,0,1-2.184.69,4.128,4.128,0,0,1-2.019-.414V158.2a3.7,3.7,0,0,0,.976.372,4.433,4.433,0,0,0,1.023.131,1.9,1.9,0,0,0,1.269-.373,1.356,1.356,0,0,0,.435-1.091q0-1.374-1.752-1.374a4.585,4.585,0,0,0-.608.05q-.362.05-.635.113l-.551-.325.294-3.745h3.986v1.1h-2.9l-.173,1.9.448-.073a4.23,4.23,0,0,1,.648-.042" transform="translate(-213.689 -135.802)" fill="#f3f3f3"/>
        <path id="Path_13-2" data-name="Path 13" d="M277.851,188.586a.858.858,0,0,1-.35.737,1.675,1.675,0,0,1-1,.257,2.366,2.366,0,0,1-1.052-.2v-.6a2.583,2.583,0,0,0,1.076.267q.643,0,.643-.388a.307.307,0,0,0-.071-.207.842.842,0,0,0-.234-.172,4.044,4.044,0,0,0-.454-.2,2.1,2.1,0,0,1-.766-.439.812.812,0,0,1-.2-.569.748.748,0,0,1,.34-.654,1.61,1.61,0,0,1,.923-.233,2.614,2.614,0,0,1,1.094.234l-.225.525a2.434,2.434,0,0,0-.892-.219q-.551,0-.551.314a.316.316,0,0,0,.144.261,3.158,3.158,0,0,0,.627.293,2.873,2.873,0,0,1,.59.288.862.862,0,0,1,.273.3.871.871,0,0,1,.089.408" transform="translate(-253.796 -165.7)" fill="#f3f3f3"/>
      </g>
    </g>
  </g>
</svg>
