<?xml version="1.0" encoding="utf-8"?>
<!-- Generator: Adobe Illustrator 26.2.1, SVG Export Plug-In . SVG Version: 6.00 Build 0)  -->
<svg version="1.1" id="Laag_1" xmlns="http://www.w3.org/2000/svg" xmlns:xlink="http://www.w3.org/1999/xlink" x="0px" y="0px"
	 viewBox="0 0 265.9 188.2" style="enable-background:new 0 0 265.9 188.2;" xml:space="preserve">
<g transform="translate(128 128) scale(0.87 0.87)">
	<path d="M142.3-139.7H6.5H4.9h-135.8c-4.6,0-8.3,3.7-8.3,8.3V53.4c0,4.6,3.7,8.3,8.3,8.3H4.9h1.5h135.8c4.6,0,8.3-3.7,8.3-8.3
		v-184.8C150.6-136,146.9-139.7,142.3-139.7z M-95.3,38.2c0,2.4-1.9,4.3-4.3,4.3h-19.2c-2.4,0-4.3-1.9-4.3-4.3V19
		c0-2.4,1.9-4.3,4.3-4.3h19.2c2.4,0,4.3,1.9,4.3,4.3L-95.3,38.2L-95.3,38.2z M-95.3-6.8c0,2.4-1.9,4.3-4.3,4.3h-19.2
		c-2.4,0-4.3-1.9-4.3-4.3v-19.2c0-2.4,1.9-4.3,4.3-4.3h19.2c2.4,0,4.3,1.9,4.3,4.3L-95.3-6.8L-95.3-6.8z M-95.3-51.9
		c0,2.4-1.9,4.3-4.3,4.3h-19.2c-2.4,0-4.3-1.9-4.3-4.3v-19.2c0-2.4,1.9-4.3,4.3-4.3h19.2c2.4,0,4.3,1.9,4.3,4.3L-95.3-51.9
		L-95.3-51.9z M-95.3-97c0,2.4-1.9,4.3-4.3,4.3h-19.2c-2.4,0-4.3-1.9-4.3-4.3v-19.2c0-2.4,1.9-4.3,4.3-4.3h19.2
		c2.4,0,4.3,1.9,4.3,4.3L-95.3-97L-95.3-97z M42.1-34.5L-24.5,3.9c-3.4,2-7.7-0.5-7.7-4.4v-76.9c0-4,4.3-6.4,7.7-4.4l66.6,38.5
		C45.5-41.5,45.5-36.5,42.1-34.5z M134.5,38.2c0,2.4-1.9,4.3-4.3,4.3H111c-2.4,0-4.3-1.9-4.3-4.3V19c0-2.4,1.9-4.3,4.3-4.3h19.2
		c2.4,0,4.3,1.9,4.3,4.3V38.2z M134.5-6.8c0,2.4-1.9,4.3-4.3,4.3H111c-2.4,0-4.3-1.9-4.3-4.3v-19.2c0-2.4,1.9-4.3,4.3-4.3h19.2
		c2.4,0,4.3,1.9,4.3,4.3V-6.8z M134.5-51.9c0,2.4-1.9,4.3-4.3,4.3H111c-2.4,0-4.3-1.9-4.3-4.3v-19.2c0-2.4,1.9-4.3,4.3-4.3h19.2
		c2.4,0,4.3,1.9,4.3,4.3V-51.9z M134.5-97c0,2.4-1.9,4.3-4.3,4.3H111c-2.4,0-4.3-1.9-4.3-4.3v-19.2c0-2.4,1.9-4.3,4.3-4.3h19.2
		c2.4,0,4.3,1.9,4.3,4.3V-97z"/>
</g>
</svg>
