<?xml version="1.0" encoding="utf-8"?>
<!-- Generator: Adobe Illustrator 26.2.1, SVG Export Plug-In . SVG Version: 6.00 Build 0)  -->
<svg version="1.1" id="Laag_1" xmlns="http://www.w3.org/2000/svg" xmlns:xlink="http://www.w3.org/1999/xlink" x="0px" y="0px"
	 viewBox="0 0 443.5 453.8" style="enable-background:new 0 0 443.5 453.8;" xml:space="preserve">
<style type="text/css">
	.st0{fill:#FFFFFF;}
</style>
<g>
	<path class="st0" d="M123.6,226.9c0,25.1,0,50.1,0,75.2c0,10.2-5.4,17-14.7,18.7c-9.8,1.8-18.9-4.7-20.4-14.5
		c-0.2-1.6-0.4-3.2-0.4-4.8c0-49.8,0-99.5,0-149.3c0-9.6,4.9-16.6,12.9-18.8c11.7-3.2,22.6,5.3,22.6,17.9
		C123.7,176.5,123.6,201.7,123.6,226.9z"/>
	<path class="st0" d="M65.6,227.9c-0.3,3.9,0.7,9.2-0.6,14.4c-2.1,8.9-9.4,14.1-18.8,13.5c-8.6-0.6-15.4-7.2-15.8-16.1
		c-0.4-8.7-0.4-17.5,0-26.2c0.4-9.3,8.3-16.3,17.7-16.2c9.2,0.1,17,7.4,17.5,16.6C65.8,218.1,65.6,222.3,65.6,227.9z"/>
	<path class="st0" d="M297.4,226.9c0,14.7,0.2,29.4,0,44.1c-0.2,12.8-12.1,20.8-24.1,16.4c-6.8-2.5-11.1-8.6-11.2-16.5
		c-0.1-11.8,0-23.7,0-35.5c0-17.7-0.1-35.4,0.1-53.1c0.1-8,6-15,13.6-16.7c8.1-1.8,16.4,2.2,20,9.6c1.3,2.7,1.8,5.7,1.8,8.7
		C297.4,198.2,297.4,212.5,297.4,226.9C297.4,226.9,297.4,226.9,297.4,226.9z"/>
	<path class="st0" d="M203.9,226.8c0-35.8,0-71.6,0-107.4c0-11.1,7.4-19,17.7-19.1c9.8-0.1,17.4,7.3,18,17.3c0.1,1.1,0,2.2,0,3.4
		c0,70.6,0,141.2,0,211.7c0,2.9-0.1,5.7-1,8.5c-2.5,8.2-10.1,13-19.2,12.1c-8.6-0.8-14.7-7.5-15.5-16.9c-0.1-1.2-0.1-2.5-0.1-3.7
		C203.9,297.4,203.9,262.1,203.9,226.8z"/>
	<path class="st0" d="M159.6,418.4c-1.1-1.3-2.8-1.3-4.2-2.1c-5.7-3-8.5-7.8-9.2-14c-0.1-1.2-0.1-2.5-0.1-3.7
		c0-114.6,0-229.2,0-343.8c0-10.2,5.2-17.1,14.4-19.1c10-2.1,20.2,5.5,20.9,15.7c0.1,1.7,0.1,3.5,0.1,5.2c0,113.2,0,226.5,0,339.7
		c0,13.3-2.5,17.2-14.3,22C164.6,418.4,162.1,418.4,159.6,418.4z"/>
	<path class="st0" d="M319.8,226.5c0-35.8,0-71.6,0-107.3c0-13,11.3-21.8,23.1-18c6.9,2.2,11,7,12.1,14.2c0.3,1.8,0.3,3.7,0.3,5.6
		c0,70.6,0,141.1,0,211.7c0,2.8-0.1,5.5-0.8,8.1c-2.4,8.6-10.2,13.6-19.6,12.5c-8.5-1-14.7-7.9-15.1-17.2c-0.2-4.5-0.1-9-0.1-13.5
		C319.8,290.6,319.8,258.5,319.8,226.5z"/>
	<path class="st0" d="M413.3,228.3c-0.3,3.9,0.7,9.2-0.6,14.4c-2.1,8.9-9.4,14.1-18.8,13.5c-8.6-0.6-15.4-7.2-15.8-16.1
		c-0.4-8.7-0.4-17.5,0-26.2c0.4-9.3,8.3-16.3,17.7-16.2c9.2,0.1,17,7.4,17.5,16.6C413.4,218.5,413.3,222.7,413.3,228.3z"/>
</g>
</svg>
